<svg width="86" height="73" viewBox="0 0 86 73" fill="none" xmlns="http://www.w3.org/2000/svg">
  <path id="Vector" d="M42.625 0L42.9375 0.0625L43.375 0.6875L43.625 1.1875L44.1875 2.4375L45.0625 4.125L46.0625 6L46.8125 7.375L47.75 9.125L48.375 10.1875L49.375 11.9375L50.125 13.1875L50.75 14.0625L51.375 14.75L51.6875 14.875L52.3125 14.8125L53.8125 14.3125L55.1875 13.75L56.375 13.25L57.75 12.5L59.1875 11.75L59.6875 11.6875L59.5625 12.3125L59.375 13.0625L59.1875 14.125L59.0625 15.25L58.9375 15.625L58.75 16.625L58.4375 18L58.25 18.9375L58.0625 20L57.8125 21.5625L57.5625 23.0625L57.375 23.875L56.9375 26.375L56.8125 27.3125L56.25 29.5625L55.5 33.25L55.4375 33.6875V34.3125L55.625 35.25L56.0625 35.8125L56.5625 36.25L56.6875 36.3125L57.25 36.25L57.625 36.0625L58.3125 35.5625L58.8125 35.0625H58.9375L59.0625 34.8125L59.6875 34.1875L60.125 33.6875L60.3125 33.4375H60.4375L60.5625 33.1875L60.8125 32.875H60.9375L61.0625 32.625H61.1875L61.3125 32.375L62.25 31.375L62.8125 30.6875L63.375 30.0625L64.0625 29.1875H64.1875L64.3125 28.9375L65 28.125L65.1875 28.0625L65.3125 27.8125L65.8125 27.1875L66.1875 26.875L66.6875 26.25L67.625 25.3125H67.75L67.875 25.0625L68.0625 24.9375L68.3125 25L68.75 26.625L69.5 28.75L69.9375 30.0625L70.3125 30.75L70.75 31.1875L71.6875 31.25L73.1875 31L75.5 30.5L79.0625 29.6875L80.875 29.3125L83.125 28.9375L84 28.75L83.4375 30.8125L83.1875 31.8125L82.75 33.25L82.5 34L82.25 34.8125L81.75 36.5L81.5625 37.25L81.25 38.375L81 39.6875L80.6875 40.875L80.4375 41.75L80.25 42.3125L80.1875 43.25L80.375 43.8125L81.1875 44.375L82.1875 44.875L83.25 45.375L84.25 45.8125L85.4375 46.3125L85.75 46.5V46.625L85.375 46.875L84.875 47.25L83.75 48.0625L82.8125 48.9375L82.125 49.5L81.0625 50.375L80.0625 51.1875L79.3125 51.8125L78.6875 52.3125L77.6875 53.125L77 53.6875L76.1875 54.3125L75.0625 55.1875L74.5 55.6875L73.9375 56.125L72.875 57L72.1875 57.5625L71.5625 58.0625L71 58.5L70.375 59L69.875 59.4375L69.25 59.9375L68.5 60.625L68 61.0625L67.1875 61.75L66.125 62.5625L65.5 63.0625L64.6875 63.9375L64.25 64.5L64 64.8125V65.25L64.3125 66.1875L64.75 67.625L65.1875 69.625L65.5625 70.9375L65.8125 72.1875L65.4375 72.125L64.1875 71.9375L61.9375 71.5L60.3125 71.0625L58.625 70.5625L56.5625 70.125L54.0625 69.5625L51.875 69.0625L49.625 68.5L46.6875 67.9375L45.5 67.75L43.5 67.625H42.5L40.9375 67.6875L39.1875 67.9375L38.5625 68.0625L36.8125 68.3125L35.6875 68.4375L34.5625 68.6875L32.8125 69.1875L31.5625 69.4375L29.1875 70L27.125 70.4375L25.9375 70.75L24.25 71.1875L22.5 71.625L20.625 71.9375L19.4375 72.0625L19.5 71.75L19.8125 71L20.1875 69.875L20.9375 67.1875L21.1875 66.25L21.3125 65.125L21.1875 64.5625L20.8125 64.0625L19.9375 63.125L19.0625 62.375L18.25 61.75L17.375 61.0625V60.9375L17.0625 60.8125L16.375 60.1875L15.5 59.5L15.25 59.3125V59.1875L15 59.0625L14.4375 58.625L13.75 58.0625V57.9375L13.4375 57.8125L12.8125 57.25L11.8125 56.5L11.25 56.0625V55.9375L10.9375 55.8125L10.625 55.5625V55.4375L10.375 55.3125L9.875 54.875L9.3125 54.4375L8.4375 53.6875L7.5625 53L6.5 52.125L5.6875 51.5L4.875 50.8125L4.25 50.3125V50.1875L4 50.0625L3.1875 49.375L2.375 48.75L1.3125 47.875L0.25 47.0625L0 46.8125L0.0625 46.5625L0.75 46.125L2.375 45.375L3 45L3.9375 44.5L4.4375 44.25L5.0625 43.875L5.3125 43.375V42.8125L5.125 41.875L4.375 39.25L3.9375 37.75L3.25 35.1875L2.5625 32.5625L2.125 30.8125L1.5625 29V28.875L3.3125 29.1875L6 29.6875L8 30.125L10.125 30.5625L11.6875 30.9375L14 31.3125H14.75L15.0625 31L15.4375 30.1875L16.0625 28.125L16.5 26.8125L16.9375 25.1875L17 25L17.25 24.9375L17.75 25.3125L18.375 25.9375L18.875 26.5625L19.5625 27.4375L20 27.875L20.5625 28.5625L21.25 29.25L21.6875 29.75L22.625 30.75L23.1875 31.4375L23.875 32.1875L24.3125 32.6875L25.25 33.6875L27.25 35.6875L27.875 36.125L28.1875 36.25L28.75 36.3125L29.4375 35.9375L29.625 34.6875V33.875L29.5 32.625L29.25 30.5625L28.8125 28.0625L28.625 27L28.125 24.1875L27.6875 21.8125L27.3125 19.75L27.0625 18.8125L26.5625 16L26.1875 13.75L25.8125 12.25L25.75 11.5625L26.0625 11.625L27.0625 12.125L28.5625 13L30 13.6875L31 14.0625L32.4375 14.625L33.0625 14.8125H33.5L34.125 14.625L34.5625 14.1875H34.6875L34.8125 13.9375L35.5625 12.8125L36.3125 11.5L36.9375 10.3125L37.8125 8.625L38.375 7.6875L39.125 6.25L39.6875 5.25L40.125 4.375L40.75 3.3125L41.3125 2.375L41.8125 1.375L42.125 0.5L42.5 0.0625L42.625 0Z" fill="#c30101" stroke="none"/>
</svg>
